<?xml version="1.0" encoding="utf-8"?>
<!-- Generator: Adobe Illustrator 24.0.2, SVG Export Plug-In . SVG Version: 6.00 Build 0)  -->
<svg version="1.1" id="Layer_1" xmlns="http://www.w3.org/2000/svg" xmlns:xlink="http://www.w3.org/1999/xlink" x="0px" y="0px"
	 viewBox="0 0 136.3 132.5" style="enable-background:new 0 0 136.3 132.5;" xml:space="preserve">
<style type="text/css">
	.st0{fill:#EC744D;}
	.st1{fill:#F4D85F;}
	.st2{fill:#F1D65C;}
	.st3{fill:none;stroke:#231F20;stroke-miterlimit:10;}
</style>
<title>Asset 6</title>
<g id="Layer_2_1_">
	<g id="aquaman_trace">
		<rect y="0" class="st0" width="136.3" height="132.5"/>
		<path class="st1" d="M56.8,116.5c-10.4-5.1-32.9-19.6-32.9-19.6c10.4-46.6,15.8-51.6,15.8-51.6C49.3,26,67.7,15.9,67.7,15.9
			l7.3,3.9c12.4,10.4,21.1,26.9,21.1,26.9c9.4,14.3,13.3,37.6,13.3,37.6l2.2,11.9l0.2,1.7l-31.3,18.7c7.7-11.7,7.5-19.2,7.5-19.2
			c0.5-19.2-11.6-25.7-11.6-25.7c-13.5-7.1-18.9,1.5-18.9,1.5c-9.2,9.4-9.5,19.2-9.5,19.2c-0.5,4.7,0,9.5,1.4,14
			C50.8,109.9,56.8,116.5,56.8,116.5z"/>
		<path class="st2" d="M45.9,106.6c-3.7-6.8-0.5-21.4-0.5-21.4c7.2-17.4,19.4-18.6,19.4-18.6c11.9-2.7,19.1,8.5,19.1,8.5
			c10,12.3,7.8,24.2,7.8,24.2c0.7,1.7-2.2,8-2.2,8c12.8-8.8,18-11.2,18-11.2c-4.8-29.3-14.3-45.5-14.3-45.5
			c-7.3-16.5-21.1-26.7-21.1-26.7c-3.4-4.3-4.8-4.1-4.8-4.1c-7.8,5.5-14.6,12.3-20.1,20.1C35.2,54.7,30,85.7,30,85.7l-1.8,10.6
			C31.7,99.7,45.9,106.6,45.9,106.6z"/>
		<path class="st3" d="M45.9,106.6c-3.7-6.8-0.5-21.4-0.5-21.4c7.2-17.4,19.4-18.6,19.4-18.6c11.9-2.7,19.1,8.5,19.1,8.5
			c10,12.3,7.8,24.2,7.8,24.2c0.7,1.7-2.2,8-2.2,8c12.8-8.8,18-11.2,18-11.2c-4.8-29.3-14.3-45.5-14.3-45.5
			c-7.3-16.5-21.1-26.7-21.1-26.7c-3.4-4.3-4.8-4.1-4.8-4.1c-7.8,5.5-14.6,12.3-20.1,20.1C35.2,54.7,30,85.7,30,85.7l-1.8,10.6
			C31.7,99.7,45.9,106.6,45.9,106.6z"/>
	</g>
</g>
</svg>
