<svg xmlns="http://www.w3.org/2000/svg" viewBox="0 0 141.7 139.4"><defs><style>.cls-1,.cls-3{fill:#231f20;}.cls-2{fill:#ede369;}.cls-3{stroke:#231f20;stroke-miterlimit:10;}</style></defs><title>Asset 1</title><g id="Layer_2" data-name="Layer 2"><g id="batman_trace"><rect class="cls-1" width="141.7" height="139.4"/><ellipse id="background" class="cls-2" cx="71.49" cy="71.74" rx="48.77" ry="27.06"/><path id="batman_emblem" data-name="batman emblem" class="cls-3" d="M35,60.51c8.93-8.68,17.11-9.45,17.11-9.45-5.62,7.66-1.28,12.26-1.28,12.26,2.3,3.06,11.74.51,11.74.51,3.58-1.53,2-14,2-14,1.27-.26,3.83,4.08,3.83,4.08,2-1.53,5.61-.25,5.61-.25,1-1.79,3.07-4.85,3.07-4.85L77.87,59c.51,4.85,5.36,5.36,5.36,5.36,9.2,1.79,10-4.08,10-4.08,1-4.6-3.06-9.71-3.06-9.71C99.83,52.85,108.77,61,108.77,61c7.4,7.41,4.85,13.53,4.85,13.53C110.3,82.47,105.7,85,105.7,85c-1.27,3.07-6.38,3.07-6.38,3.07,8.42-10-6.13-10.22-6.13-10.22-3.06.77-5.62,4.85-5.62,4.85-1-5.61-7.4-3.06-7.4-3.06a16.39,16.39,0,0,0-8.43,10.21c-1-7.4-9.95-10.47-9.95-10.47C58.47,77.87,56.43,82,56.43,82A12.41,12.41,0,0,0,49,78.64c-6.38.76-6.13,5.87-6.13,5.87a14.83,14.83,0,0,0,1.28,4.85c-11.23-2.3-14-14.55-14-14.55C29.11,62.81,35,60.51,35,60.51Z"/></g></g></svg>