<?xml version="1.0" encoding="utf-8"?>
<!-- Generator: Adobe Illustrator 23.0.4, SVG Export Plug-In . SVG Version: 6.00 Build 0)  -->
<svg version="1.1" id="Captain_america" xmlns="http://www.w3.org/2000/svg" xmlns:xlink="http://www.w3.org/1999/xlink" x="0px"
	 y="0px" viewBox="0 0 208.8 208.8" style="enable-background:new 0 0 208.8 208.8;" xml:space="preserve">
<style type="text/css">
	.st0{fill:#FFFFFF;}
	.st1{fill:#FF0000;}
	.st2{fill:#0000FF;}
</style>
<rect id="Background" class="st0" width="208.8" height="208.8"/>
<title>Captain America</title>
<g id="Red_rings">
	<path class="st1" d="M196.8,104.4c-0.3,38.3-24.4,73.8-60.7,86.9c-37,13.2-78.2,1.9-103.4-28.3C7.9,133.2,5.2,89.3,25.3,56.2
		c20-32.8,59.5-50.2,97.2-42.5C165.5,22.5,196.5,60.7,196.8,104.4c0,7.7,12,7.7,12,0c-0.4-44.1-28.1-83.4-69.5-98.5
		C98.4-8.8,50.7,4.5,23.4,38.3c-27.5,34-31.4,82.8-8.5,120.4c22.8,37.4,67.3,56.6,110.1,48.2c48.4-9.6,83.4-53.5,83.7-102.4
		C208.8,96.7,196.8,96.7,196.8,104.4z"/>
	<path class="st1" d="M170.8,104.4c-0.3,27.6-17.6,53.3-43.9,62.6c-26.5,9.3-56,1.2-74-20.4C35.1,125.2,33,93.8,47.3,70.1
		S90,33.7,117.2,39.2C148.2,45.6,170.5,72.8,170.8,104.4c0.1,7.7,12.1,7.7,12,0c-0.3-32.8-20.8-62.1-51.5-73.7
		C100.7,19.3,64.6,29,43.9,54.3c-20.9,25.5-24.1,62.2-7,90.6c17,28.3,50.4,42.8,82.7,36.6c36.5-7,62.8-40.2,63.1-77
		C182.9,96.7,170.9,96.7,170.8,104.4z"/>
</g>
<circle id="Blue_circle" class="st2" cx="104.3" cy="104.4" r="67"/>
<polygon id="White_star" class="st0" points="104.3,37.4 119.4,84.3 168.3,84.3 128.7,113.2 143.8,160.1 104.3,131.1 64.7,160.1 
	79.8,113.2 40.2,84.3 89.1,84.3 "/>
</svg>
