<?xml version="1.0" encoding="utf-8"?>
<!-- Generator: Adobe Illustrator 24.0.2, SVG Export Plug-In . SVG Version: 6.00 Build 0)  -->
<svg version="1.1" id="Captain_america" xmlns="http://www.w3.org/2000/svg" xmlns:xlink="http://www.w3.org/1999/xlink" x="0px"
	 y="0px" viewBox="0 0 85.5 85.5" style="enable-background:new 0 0 85.5 85.5;" xml:space="preserve">
<style type="text/css">
	.st0{fill:#000CA0;}
	.st1{fill:#FC0000;}
	.st2{stroke:#FC0000;stroke-width:6;stroke-miterlimit:10;}
</style>
<rect width="85.5" height="85.5"/>
<title>DC</title>
<g id="D">
	<path class="st0" d="M18.7,16.5l-4.3,15.8L7.6,57.4L6,63.2C5.8,64,6.3,64.8,7.1,65c0.1,0,0.2,0,0.4,0c6.4,0,12.8,0.1,19.2,0
		c2.8,0,5.7-0.5,8.3-1.5c1.6-0.7,4.2-1.9,4.9-3.7c1.1-2.7,1.9-5.5,2.9-8.3c2.1-6.2,4.3-12.3,6.4-18.6l2.1-6.2
		c0.2-0.6,0.4-1.2,0.6-1.8c0.2-1.7,0.2-3.5,0.1-5.3c0.1-0.9-0.1-1.9-0.6-2.7c-0.6-0.8-1.4-1.5-2.4-2c-2.2-1-4.5-1.6-6.9-1.8
		c-3-0.3-6-0.3-9-0.2c-3.4,0-6.7,0-10,0h-2.6c-0.7,0-1.3,0.5-1.4,1.1L18.7,16.5c-0.3,1.9,2.6,2.7,2.9,0.8l0.4-2.3l-1.4,1.1
		c5.7,0,11.4-0.2,17.1-0.1c3.6,0.1,8.7,0.2,11.3,2.8c0,0,0.1,0.2,0.1,0.2v0.1c0.1,0.3,0.1,0.1-0.1-0.5V19c0,0.8,0,1.5,0,2.3
		c0.1,1.1,0.1,2.3-0.1,3.4c-0.5,1.9-1.3,3.8-1.9,5.7C45,36.1,43,41.8,41,47.6l-3.5,10.3c-0.1,0.3-0.3,0.7-0.4,1.1
		c0,0-0.1,0.2-0.1,0.2c0-0.1,0.6-0.7,0.3-0.6s-0.3,0.3-0.4,0.4c-1.8,1.5-4,2.4-6.3,2.8c-3.5,0.6-7.2,0.4-10.7,0.4H7.5L8.9,64
		l4.3-15.8L20,23.1l1.6-5.8c0.2-0.8-0.3-1.6-1.1-1.8C19.7,15.3,18.9,15.8,18.7,16.5z"/>
</g>
<path class="st0" d="M32.1,21.9c-2.3,11.3-6.2,22.1-10,33c-1.1,3,3.8,4.3,4.8,1.3c3.8-10.9,7.7-21.7,10-33
	C37.5,20.1,32.7,18.7,32.1,21.9z"/>
<g id="C">
	<path class="st1" d="M54.1,22.1c1.6-1.6,3.1-3.4,5.2-4.3c1.3-0.6,2.6-0.8,3.9-1.2c0.5-0.2-0.4-0.1-0.1,0c0.2,0,0.5,0,0.7,0H84
		l-1.4-1.9c-1.9,7.9-3.6,15.9-5.8,23.8c-1.4,5.3-2.4,10.8-4.6,15.8c-1.1,2.7-3.1,4.9-5.6,6.3c-1.6,0.8-3.3,1.4-5,1.8
		c-0.3,0.1-0.6,0.1-0.9,0.2c-0.3,0.2,0.2,0,0.2,0c-0.5,0-1,0-1.4,0c-3.3,0-6.6,0.4-9.6-1.2c-2.3-1.3-4.6-2.7-6.8-4.3
		c-0.2-0.1-0.3-0.2-0.4-0.3c0.6,0.5-0.2-0.2-0.3-0.3L41,55l0.5,1.4l10-30.5c0.1-0.4,0.6-1.2,0.5-1.6c0.1,0.4-0.7,0.9-0.1,0.3
		c0.3-0.3,0.5-0.6,0.8-1L54.1,22.1c1.3-1.5-0.8-3.6-2.1-2.2s-2.6,2.6-3.1,4.4L46.7,31l-6.5,19.7l-1.6,4.9c-0.1,0.5,0,1.1,0.4,1.5
		c0.7,0.8,1.5,1.6,2.4,2.3c1.7,1.2,3.4,2.4,5.2,3.4c1.9,1.3,4,2.2,6.3,2.6c1.2,0.1,2.5,0.2,3.7,0.2c1.4,0,2.9,0.1,4.3,0
		c1.3-0.1,2.5-0.5,3.6-0.9c3.1-0.8,5.9-2.6,7.9-5.1c2-2.6,3.4-5.6,4.3-8.7l2.1-8.1c1-3.6,1.9-7.2,2.8-10.8l4-16.5
		c0.2-0.8-0.3-1.7-1.1-1.9c-0.1,0-0.3,0-0.4,0H63.9c-1.7,0.1-3.4,0.4-4.9,1.1c-1.6,0.6-3.1,1.5-4.4,2.6L51.9,20
		c-0.6,0.6-0.5,1.6,0.1,2.1C52.6,22.7,53.5,22.7,54.1,22.1z"/>
</g>
<polyline class="st2" points="68,23.1 64,35.1 77,35.1 76,38.1 63,38.1 56,55.1 "/>
</svg>
