<?xml version="1.0" encoding="utf-8"?>
<!-- Generator: Adobe Illustrator 23.0.4, SVG Export Plug-In . SVG Version: 6.00 Build 0)  -->
<svg version="1.1" id="Layer_1" xmlns="http://www.w3.org/2000/svg" xmlns:xlink="http://www.w3.org/1999/xlink" x="0px" y="0px"
	 viewBox="0 0 135.1 133" style="enable-background:new 0 0 135.1 133;" xml:space="preserve">
<style type="text/css">
	.st0{fill:#598D5E;}
	.st1{fill:#FFFFFF;stroke:#231F20;stroke-miterlimit:10;}
	.st2{fill:#598D5E;stroke:#231F20;stroke-miterlimit:10;}
</style>
<title>Asset 8</title>
<g>
	<g id="green_lantern_trace">
		<rect class="st0" width="135.1" height="133"/>
		<circle class="st1" cx="68.4" cy="66.9" r="49"/>
		<path class="st2" d="M38.5,31.1l59-0.3l-0.3,12.5L84,44.2c12.3,6.6,13.5,16.6,13.5,16.6c2.6,11-4.1,20.9-4.1,20.9
			c-1,3.6-9.4,8.7-9.4,8.7h13.5l-0.2,12l-57.7,1.5l0.3-13l11.7-0.5l-6.4-5.6C34.2,74.6,40.3,58,40.3,58
			c4.3-11.8,12.5-14.3,12.5-14.3l-14,0.2L38.5,31.1z"/>
		<circle class="st1" cx="68.6" cy="67.3" r="14.7"/>
	</g>
</g>
</svg>
