<svg id="Jl_logo" xmlns="http://www.w3.org/2000/svg" viewBox="0 0 205.07 240.7"><defs><style>.cls-1{font-size:145.75px;}.cls-1,.cls-2{font-family:JUSTICELEAGUE, JUSTICE LEAGUE;}.cls-2{font-size:147.01px;}.cls-3{fill:#fff;}</style></defs><title>Jl_logo</title><g id="Jl_shield"><path d="M476,592.82l-82.2,41.1-11.8,5.9H388L301.42,598.7,289,592.82l3,5.18V416l-6,6H479l-6-6V598c0,7.72,12,7.73,12,0V416a6.09,6.09,0,0,0-6-6H286a6.09,6.09,0,0,0-6,6V598a5.92,5.92,0,0,0,3,5.18L369,644c4.22,2,8.39,4.24,12.7,6s7.66-.49,11.56-2.44l48.05-24L482,603.18C488.94,599.73,482.87,589.37,476,592.82Z" transform="translate(-280 -410)"/></g><g id="J_L"><text class="cls-1" transform="translate(25 179.18) scale(1.21 1)">J</text><text class="cls-2" transform="translate(97.21 180.01) scale(1.35 1)">L</text></g><polygon id="Jl_star" class="cls-3" points="103.5 52.83 111 73 131 72.81 113 85 120.5 105.13 104 91 86.5 105.13 97 85 76 72.81 97 73 103.5 52.83"/></svg>