<?xml version="1.0" encoding="utf-8"?>
<!-- Generator: Adobe Illustrator 24.0.2, SVG Export Plug-In . SVG Version: 6.00 Build 0)  -->
<svg version="1.1" id="Justice_League" xmlns="http://www.w3.org/2000/svg" xmlns:xlink="http://www.w3.org/1999/xlink" x="0px"
	 y="0px" viewBox="0 0 244.6 188" style="enable-background:new 0 0 244.6 188;" xml:space="preserve">
<style type="text/css">
	.st0{fill:#1106F4;}
	.st1{fill:#F90606;}
	.st2{font-family:'JUSTICELEAGUE';}
	.st3{font-size:55.19px;}
	.st4{fill:#0000FF;}
</style>
<title>Logo_j</title>
<path id="J_bckgrd" class="st0" d="M200,165.4L122.3,188l-87.2-24.8L0,0c0,0,41.4,18.9,56.9,20.3c17,1.5,67.3-10.5,67.3-10.5
	s45.9,11.8,61.6,10.5C201.8,19,244.6,0,244.6,0L200,165.4z"/>
<text transform="matrix(1 0 0 1 35.91 88.27)" class="st1 st2 st3">JUSTICE</text>
<text transform="matrix(1 0 0 1 35.91 154.49)" class="st1 st2 st3">LEAGUE</text>
<polygon id="J_star" class="st4" points="163.3,66.6 157.2,60.5 150.6,66.2 153.4,58 147,54 155.3,54.3 157.6,46.9 159.7,54.3 
	167.6,54.7 161,58 "/>
</svg>
