<svg xmlns="http://www.w3.org/2000/svg" viewBox="0 0 139.57 136.85"><defs><style>.cls-1{fill:#515398;}.cls-2{fill:#c94355;}.cls-2,.cls-3,.cls-4{stroke:#231f20;stroke-miterlimit:10;}.cls-3{fill:#f3e16d;}.cls-4{fill:#f2e16d;}</style></defs><title>Asset 2</title><g id="Layer_2" data-name="Layer 2"><g id="superman_trace"><rect class="cls-1" width="139.57" height="136.85"/><polygon class="cls-2" points="34.38 30.64 102.81 30.3 122.21 48.34 71.49 106.55 18.04 50.72 34.38 30.64"/><path class="cls-3" d="M57.53,38.47c8.85-4.09,21.45,0,21.45,0,6.47,3.74,8.85,11.23,8.85,11.23l17.7.34-.68-10.21,9.53,7.83L102.47,60.6C96,54.13,86.81,53.11,86.81,53.11c-12.94,1.7-29.28-.34-29.28-.34-11.57-3.41-9.19-5.45-9.19-5.45C48.34,39.83,57.53,38.47,57.53,38.47Z"/><path class="cls-4" d="M40.17,66.38c8.51,3.75,39.49,3.07,39.49,3.07,10.89-.68,10.21,4.76,10.21,4.76-5.44,8.17-19.74,5.45-19.74,5.45-5.45-5.45-10.22-5.11-10.22-5.11-6.8-1-10.89,1.36-10.89,1.36Z"/><path class="cls-4" d="M59.32,86.09c5.23,4.21,19.28,1.14,19.28,1.14L82,85.83C70.68,99.36,70.68,99,70.68,99Z"/><path class="cls-4" d="M84.09,36c2.68.26,6.25,5.11,6.25,5.11l4.6-5.87Z"/><path class="cls-4" d="M24.34,50.34,36,36.55h8c-8,5.36-10.72,10.34-10.72,10.34-2.05,2.56-1.54,10.6-1.54,10.6Z"/></g></g></svg>