<svg xmlns="http://www.w3.org/2000/svg" viewBox="0 0 137.36 134.55"><defs><style>.cls-1{fill:#c64450;}.cls-2{fill:#ecdb67;}.cls-2,.cls-3,.cls-4{stroke:#231f20;stroke-miterlimit:10;}.cls-3{fill:#f1e06a;}.cls-4{fill:#eedd69;}</style></defs><title>Asset 3</title><g id="Layer_2" data-name="Layer 2"><g id="wonderwomen_trace"><rect class="cls-1" width="137.36" height="134.55"/><path class="cls-2" d="M120.26,45.7s2.29-.51-6.9-.51c0,0-23.74-.76-27.83,1.28a78.57,78.57,0,0,1-7.4,14.81s-7.15-12-8.94-17.37c0,0-4.34,11.49-8.68,17.37,0,0-5.87-15.07-11.49-15.32L17.36,47c2,8.68,10.21,6.89,10.21,6.89,4.34,0,17.88-.51,17.88-.51l3.83,2c4.34,7.15,11,23,11,23l8.93-14.55,8.17,14.3,11.75-21.7c2.29-5.88,12-3.58,12-3.58,7.91.26,12.25,0,12.25,0C119.49,50,120.26,45.7,120.26,45.7Z"/><path class="cls-3" d="M32.94,61.53c3.06,6.64,11,5.87,11,5.87,7.41.26,8.94,8.17,8.94,8.17A69.3,69.3,0,0,0,60,90.89l8.43-14.55,8.68,14.81L87.83,71.23A11.56,11.56,0,0,1,98.3,66.64,9,9,0,0,0,105.7,60l-18.13.26L78.38,78.38,69.19,63.83,60.26,78.38,51.57,60.51Z"/><path class="cls-4" d="M89.11,56.43c2.8-5.62,14-3.58,14-3.58,9.45,0,11.23.26,11.23.26,0,4.34-6.12,7.4-6.12,7.4-5.37.77-20.69-.25-20.69-.25Z"/><path class="cls-4" d="M26.29,57.3c2.66,5.69,13.94,4,13.94,4,9.45.25,11.24.05,11.24.05.12-4.34-5.92-7.57-5.92-7.57-5.34-.91-20.68-.31-20.68-.31Z"/></g></g></svg>